<?xml version="1.0" encoding="UTF-8"?><svg xmlns="http://www.w3.org/2000/svg" viewBox="0 0 40.44 40"><defs><style>.d{fill:#004987;}.e{fill:#ff4d00;}</style></defs><g id="a"/><g id="b"><g id="c"><g><path class="d" d="M28.82,32.39c2.46,0,3.81-1.4,3.81-3.76v-7.33h7.81v6.8c0,.21-.01,.41-.03,.61-.38,7.52-4.21,11.29-11.49,11.29l-17.38-.05C4.24,39.95,.41,36.19,.03,28.67c-.02-.19-.03-.4-.03-.61v-6.8H7.81v7.33c0,2.36,1.35,3.76,3.81,3.76l17.2,.05Z"/><path class="e" d="M11.62,7.61c-2.46,0-3.81,1.4-3.81,3.76v7.33H0v-6.8c0-.21,.01-.41,.03-.61C.41,3.76,4.24,0,11.53,0L28.91,.05c7.28,0,11.11,3.76,11.49,11.29,.02,.19,.03,.4,.03,.61v6.8h-7.81v-7.33c0-2.36-1.35-3.76-3.81-3.76l-17.2-.05Z"/><path d="M16.54,13.12l3.06-1.16c.41-.15,.86-.15,1.27,0l3.06,1.16c.69,.26,1.15,.93,1.15,1.67v3.58s.08,.03,.12,.01l3.06,1.19c.69,.26,1.15,.93,1.15,1.67v3.8c0,.71-.42,1.35-1.07,1.63l-3.06,1.35c-.46,.2-.98,.2-1.43,0l-3.62-1.59-3.62,1.59c-.46,.2-.98,.2-1.43,0l-3.06-1.35c-.65-.28-1.07-.92-1.07-1.63v-3.8c0-.74,.46-1.41,1.15-1.67l3.06-1.19s.08,0,.12-.01v-3.58c0-.74,.46-1.41,1.15-1.67Zm-.55,6.72c-.06-.02-.15-.02-.18,0l-2.5,.95,2.59,.99,2.59-.99-2.5-.95Zm.6,6.52l2.63-1.15v-3.06l-2.63,1.01v3.2Zm3.74-12.96c-.06-.02-.15-.02-.18,0l-2.5,.95,2.56,.99,2.62-.99-2.5-.95Zm3.23,5.16v-2.86l-2.63,1.01v2.84l2.63-.99Zm-1.57,2.23l2.59,.99,2.59-.99-2.5-.95c-.06-.02-.15-.02-.18,0l-2.5,.95Zm5.9,4.25v-2.89l-2.63,1.01v3.2l2.47-1.09c.09-.04,.15-.13,.15-.23Z"/></g></g></g></svg>