<?xml version="1.0" encoding="UTF-8"?><svg xmlns="http://www.w3.org/2000/svg" viewBox="0 0 40.44 40"><defs><style>.d{fill:#004987;}.e{fill:#ff4d00;}</style></defs><g id="a"/><g id="b"><g id="c"><g><path class="d" d="M28.82,32.39c2.46,0,3.81-1.4,3.81-3.76v-7.33h7.81v6.8c0,.21-.01,.41-.03,.61-.38,7.52-4.21,11.29-11.49,11.29l-17.38-.05C4.24,39.95,.41,36.19,.03,28.67c-.02-.19-.03-.4-.03-.61v-6.8H7.81v7.33c0,2.36,1.35,3.76,3.81,3.76l17.2,.05Z"/><path class="e" d="M11.62,7.61c-2.46,0-3.81,1.4-3.81,3.76v7.33H0v-6.8c0-.21,.01-.41,.03-.61C.41,3.76,4.24,0,11.53,0L28.91,.05c7.28,0,11.11,3.76,11.49,11.29,.02,.19,.03,.4,.03,.61v6.8h-7.81v-7.33c0-2.36-1.35-3.76-3.81-3.76l-17.2-.05Z"/><g><path d="M13.55,25.57c.11,0,.21,0,1.05,0,.6,0,.96,.53,.74,1.05-.13,.31-.38,.46-.7,.47-1.11,.01-.49,.01-1.6,0-.59,0-.94-.36-1-.95,0-.06-.01-.13-.01-.19,0-1.02,0-2.04,0-3.05,0-.32,.06-.61,.37-.79,.54-.31,1.14,.03,1.15,.68,.01,.83,0,1.67,0,2.5,0,.08,0,.17,0,.29Z"/><path d="M13.55,12.23c0,.11,0,.2,0,.28,0,.84,0,1.68,0,2.52,0,.63-.6,.97-1.14,.67-.27-.15-.37-.41-.37-.7,0-1.09-.02-2.18,0-3.27,.01-.66,.41-1.02,1.06-1.03,1.07,0,2.15,0,3.22,0,.31,0,.57,.11,.72,.4,.14,.27,.12,.54-.04,.79-.17,.26-.44,.33-.72,.33-.82,0-1.64,0-2.46,0-.08,0-.16,0-.27,0Z"/><path d="M26.89,25.57c0-.89,0-1.74,0-2.6,0-.11,0-.23,.02-.34,.06-.39,.38-.66,.75-.65,.39,.01,.7,.3,.73,.7,.02,.16,0,.33,0,.49,0,.93,0,1.86,0,2.8,0,.75-.38,1.13-1.13,1.13-1.05,0-.36,0-1.41,0-.62,0-.99-.53-.76-1.07,.14-.34,.43-.45,.78-.45,.83,0,.9,0,1,0Z"/><path d="M26.89,12.23c-.9,0-1.77,0-2.64,0-.1,0-.2,0-.3-.02-.43-.08-.67-.4-.64-.8,.03-.41,.32-.68,.75-.7,.05,0,.1,0,.15,0,1.02,0,2.03,0,3.05,0,.77,0,1.14,.37,1.14,1.14,0,1.05,0,2.09,0,3.14,0,.41-.17,.66-.5,.78-.44,.16-.9-.1-.99-.57-.02-.11-.03-.23-.03-.34,0-.78,0-1.57,0-2.35v-.28Z"/></g><g><circle cx="20.22" cy="17.9" r="3.29"/><path d="M19.53,21.98h1.37c1.77,0,3.2,1.44,3.2,3.2v2.48c0,.9-.73,1.63-1.63,1.63h-4.52c-.9,0-1.63-.73-1.63-1.63v-2.48c0-1.77,1.44-3.2,3.2-3.2Z"/></g></g></g></g></svg>