<?xml version="1.0" encoding="UTF-8"?><svg xmlns="http://www.w3.org/2000/svg" viewBox="0 0 40.44 40"><defs><style>.d{fill:#004987;}.e{fill:#ff4d00;}.f{fill:#888b8d;}</style></defs><g id="a"/><g id="b"><g id="c"><g><path class="d" d="M28.82,32.39c2.46,0,3.81-1.4,3.81-3.76v-7.33h7.81v6.8c0,.21-.01,.41-.03,.61-.38,7.52-4.21,11.29-11.49,11.29l-17.38-.05C4.24,39.95,.41,36.19,.03,28.67c-.02-.19-.03-.4-.03-.61v-6.8H7.81v7.33c0,2.36,1.35,3.76,3.81,3.76l17.2,.05Z"/><path class="e" d="M11.62,7.61c-2.46,0-3.81,1.4-3.81,3.76v7.33H0v-6.8c0-.21,.01-.41,.03-.61C.41,3.76,4.24,0,11.53,0L28.91,.05c7.28,0,11.11,3.76,11.49,11.29,.02,.19,.03,.4,.03,.61v6.8h-7.81v-7.33c0-2.36-1.35-3.76-3.81-3.76l-17.2-.05Z"/><path class="f" d="M27.32,13c1.1,0,2,.9,2,2v1H11.3v-1c0-1.11,.9-2,2-2h14.01Zm2,12.01c0,1.1-.9,2-2,2H13.3c-1.11,0-2-.9-2-2v-6.01H29.32v6.01Zm-14.51-2c-.28,0-.5,.23-.5,.5s.23,.5,.5,.5h2c.28,0,.5-.23,.5-.5s-.23-.5-.5-.5h-2Zm4,1h4c.28,0,.5-.23,.5-.5s-.23-.5-.5-.5h-4c-.28,0-.5,.23-.5,.5s.23,.5,.5,.5Z"/></g></g></g></svg>