<?xml version="1.0" encoding="UTF-8"?><svg xmlns="http://www.w3.org/2000/svg" viewBox="0 0 40.44 40"><defs><style>.d{fill:#004987;}.e{fill:#ff4d00;}</style></defs><g id="a"/><g id="b"><g id="c"><g><path class="d" d="M28.82,32.39c2.46,0,3.81-1.4,3.81-3.76v-7.33h7.81v6.8c0,.21-.01,.41-.03,.61-.38,7.52-4.21,11.29-11.49,11.29l-17.38-.05C4.24,39.95,.41,36.19,.03,28.67c-.02-.19-.03-.4-.03-.61v-6.8H7.81v7.33c0,2.36,1.35,3.76,3.81,3.76l17.2,.05Z"/><path class="e" d="M11.62,7.61c-2.46,0-3.81,1.4-3.81,3.76v7.33H0v-6.8c0-.21,.01-.41,.03-.61C.41,3.76,4.24,0,11.53,0L28.91,.05c7.28,0,11.11,3.76,11.49,11.29,.02,.19,.03,.4,.03,.61v6.8h-7.81v-7.33c0-2.36-1.35-3.76-3.81-3.76l-17.2-.05Z"/><path d="M22.65,16.84h4.31v10.3c0,.9-.73,1.63-1.63,1.63H15.57c-.9,0-1.63-.73-1.63-1.63V13.04c0-.9,.73-1.63,1.63-1.63h5.96v4.34c0,.6,.48,1.08,1.11,1.08Zm-6.54-2.44c0,.15,.12,.27,.27,.27h2.71c.15,0,.27-.12,.27-.27v-.54c0-.15-.12-.27-.27-.27h-2.71c-.15,0-.27,.12-.27,.27v.54Zm0,2.17c0,.15,.12,.27,.27,.27h2.71c.15,0,.27-.12,.27-.27v-.54c0-.15-.12-.27-.27-.27h-2.71c-.15,0-.27,.12-.27,.27v.54Zm8.13,7.86h-1.6c-.14,0-.28-.08-.34-.22-.4-.81-1.57-1.03-2.24-.48l-.47-1.41c-.11-.33-.42-.56-.77-.56s-.66,.22-.77,.56l-.62,1.85c-.05,.15-.19,.26-.36,.26h-.42c-.3,0-.54,.24-.54,.54s.24,.54,.54,.54h.42c.63,0,1.19-.4,1.39-1l.36-1.08,.57,1.71c.07,.21,.25,.36,.47,.37h.04c.17,0,.39-.12,.48-.3l.26-.52c.09-.19,.27-.21,.34-.21s.25,.02,.34,.22c.25,.5,.75,.81,1.31,.81h1.6c.3,0,.54-.24,.54-.54s-.24-.54-.54-.54h0Zm2.71-8.67h-4.34v-4.34l4.34,4.34Z"/></g></g></g></svg>