<?xml version="1.0" encoding="UTF-8"?><svg xmlns="http://www.w3.org/2000/svg" viewBox="0 0 40.44 40"><defs><style>.d{fill:#004987;}.e{fill:#ff4d00;}</style></defs><g id="a"/><g id="b"><g id="c"><g><path class="d" d="M28.82,32.39c2.46,0,3.81-1.4,3.81-3.76v-7.33h7.81v6.8c0,.21-.01,.41-.03,.61-.38,7.52-4.21,11.29-11.49,11.29l-17.38-.05C4.24,39.95,.41,36.19,.03,28.67c-.02-.19-.03-.4-.03-.61v-6.8H7.81v7.33c0,2.36,1.35,3.76,3.81,3.76l17.2,.05Z"/><path class="e" d="M11.62,7.61c-2.46,0-3.81,1.4-3.81,3.76v7.33H0v-6.8c0-.21,.01-.41,.03-.61C.41,3.76,4.24,0,11.53,0L28.91,.05c7.28,0,11.11,3.76,11.49,11.29,.02,.19,.03,.4,.03,.61v6.8h-7.81v-7.33c0-2.36-1.35-3.76-3.81-3.76l-17.2-.05Z"/><path d="M20.15,28.8c-4.82,0-8.73-3.91-8.73-8.73s3.91-8.73,8.73-8.73,8.73,3.91,8.73,8.73-3.91,8.73-8.73,8.73Zm-.82-8.73c0,.27,.14,.53,.37,.65l3.28,2.18c.38,.28,.88,.18,1.11-.2,.28-.38,.18-.88-.2-1.14l-2.91-1.94v-4.2c0-.45-.37-.82-.85-.82-.42,0-.82,.37-.82,.82l.03,4.64Z"/></g></g></g></svg>