<?xml version="1.0" encoding="UTF-8"?><svg xmlns="http://www.w3.org/2000/svg" viewBox="0 0 40.44 40"><defs><style>.d{fill:#004987;}.e{fill:#ff4d00;}</style></defs><g id="a"/><g id="b"><g id="c"><g><path class="d" d="M28.82,32.39c2.46,0,3.81-1.4,3.81-3.76v-7.33h7.81v6.8c0,.21-.01,.41-.03,.61-.38,7.52-4.21,11.29-11.49,11.29l-17.38-.05C4.24,39.95,.41,36.19,.03,28.67c-.02-.19-.03-.4-.03-.61v-6.8H7.81v7.33c0,2.36,1.35,3.76,3.81,3.76l17.2,.05Z"/><path class="e" d="M11.62,7.61c-2.46,0-3.81,1.4-3.81,3.76v7.33H0v-6.8c0-.21,.01-.41,.03-.61C.41,3.76,4.24,0,11.53,0L28.91,.05c7.28,0,11.11,3.76,11.49,11.29,.02,.19,.03,.4,.03,.61v6.8h-7.81v-7.33c0-2.36-1.35-3.76-3.81-3.76l-17.2-.05Z"/><g><path d="M12.56,24.1v-7.98h3.97v7.98h-3.97Z"/><path d="M21.82,16.76l3.87-1.03,2.06,7.72-3.84,1.03-2.1-7.72Z"/><path d="M17.57,16.11h3.93v7.99h-3.93v-7.99Z"/><path d="M17.6,15.09c0-.74-.01-1.44,0-2.14,.01-.43,.36-.8,.82-.83,.75-.04,1.5-.03,2.25,0,.39,.02,.56,.19,.81,.62,.66-.18,1.32-.37,1.98-.54,.18-.05,.37-.1,.55-.09,.45,.02,.75,.29,.88,.71,.19,.63,.36,1.27,.55,1.93l-3.87,1.03c-.05-.18-.1-.33-.13-.49-.03-.15-.1-.2-.25-.2-1.13,0-2.25,0-3.38,0h-.21Z"/><path d="M12.55,15.03c0-.68-.01-1.34,0-2,.01-.55,.4-.93,.95-.94,.69-.02,1.38-.02,2.06,0,.57,.01,.95,.38,.97,.94,.02,.66,0,1.32,0,2h-3.99Z"/><path d="M24.18,25.47l3.82-1.03c.07,.26,.14,.51,.21,.75,.1,.35,.2,.71,.3,1.06,.17,.64-.1,1.14-.74,1.32-.59,.17-1.18,.33-1.76,.49-.68,.19-1.18-.1-1.37-.78-.15-.54-.29-1.09-.43-1.63-.01-.05-.02-.11-.03-.18Z"/><path d="M17.57,25.08h3.87s.03,.03,.03,.04c0,.72,.02,1.43,0,2.15-.01,.41-.36,.75-.78,.76-.76,.02-1.53,.02-2.29,0-.42-.01-.79-.36-.81-.79-.03-.71,0-1.43,0-2.17Z"/><path d="M16.55,25.14c-.03,.71-.04,1.41-.09,2.1-.03,.42-.4,.78-.83,.79-.72,.02-1.45,.02-2.17,0-.53-.01-.9-.39-.91-.92-.01-.65,0-1.31,0-1.98h4Z"/></g></g></g></g></svg>