<?xml version="1.0" encoding="UTF-8"?><svg xmlns="http://www.w3.org/2000/svg" viewBox="0 0 40.44 40"><defs><style>.d{fill:#004987;}.e{fill:#ff4d00;}</style></defs><g id="a"/><g id="b"><g id="c"><g><path class="d" d="M28.82,32.39c2.46,0,3.81-1.4,3.81-3.76v-7.33h7.81v6.8c0,.21-.01,.41-.03,.61-.38,7.52-4.21,11.29-11.49,11.29l-17.38-.05C4.24,39.95,.41,36.19,.03,28.67c-.02-.19-.03-.4-.03-.61v-6.8H7.81v7.33c0,2.36,1.35,3.76,3.81,3.76l17.2,.05Z"/><path class="e" d="M11.62,7.61c-2.46,0-3.81,1.4-3.81,3.76v7.33H0v-6.8c0-.21,.01-.41,.03-.61C.41,3.76,4.24,0,11.53,0L28.91,.05c7.28,0,11.11,3.76,11.49,11.29,.02,.19,.03,.4,.03,.61v6.8h-7.81v-7.33c0-2.36-1.35-3.76-3.81-3.76l-17.2-.05Z"/><path d="M20.05,12.04c.41-.41,1.06-.41,1.47,0,.41,.41,.41,1.06,0,1.47l-.82,.79h4.76c1.72,0,3.12,1.4,3.12,3.12v1.04c0,.6-.46,1.04-1.04,1.04s-1.04-.44-1.04-1.04v-1.04c0-.55-.46-1.04-1.04-1.04h-4.76l.82,.85c.41,.41,.41,1.06,0,1.47s-1.06,.41-1.47,0l-2.6-2.6c-.41-.41-.41-1.06,0-1.47l2.6-2.6Zm3.03,10.91c.41,.41,.41,1.06,0,1.47l-2.6,2.6c-.41,.41-1.06,.41-1.47,0s-.41-1.06,0-1.47l.82-.82h-4.76c-.57,0-1.04,.46-1.04,1.04v1.04c0,.57-.47,1.04-1.04,1.04s-1.04-.46-1.04-1.04v-1.04c0-1.75,1.4-3.12,3.12-3.12h4.76l-.82-.82c-.41-.41-.41-1.06,0-1.47s1.06-.41,1.47,0l2.6,2.6Zm5.5,.73c0,1.15-.93,2.08-2.08,2.08s-2.08-.93-2.08-2.08,.93-2.08,2.08-2.08,2.08,.93,2.08,2.08Zm-12.47-8.31c0,1.15-.93,2.08-2.08,2.08s-2.08-.93-2.08-2.08,.93-2.08,2.08-2.08,2.08,.93,2.08,2.08Z"/></g></g></g></svg>