<?xml version="1.0" encoding="UTF-8"?><svg xmlns="http://www.w3.org/2000/svg" viewBox="0 0 40.44 40"><defs><style>.d{fill:#004987;}.e{fill:#ff4d00;}</style></defs><g id="a"/><g id="b"><g id="c"><g><path class="d" d="M28.82,32.39c2.46,0,3.81-1.4,3.81-3.76v-7.33h7.81v6.8c0,.21-.01,.41-.03,.61-.38,7.52-4.21,11.29-11.49,11.29l-17.38-.05C4.24,39.95,.41,36.19,.03,28.67c-.02-.19-.03-.4-.03-.61v-6.8H7.81v7.33c0,2.36,1.35,3.76,3.81,3.76l17.2,.05Z"/><path class="e" d="M11.62,7.61c-2.46,0-3.81,1.4-3.81,3.76v7.33H0v-6.8c0-.21,.01-.41,.03-.61C.41,3.76,4.24,0,11.53,0L28.91,.05c7.28,0,11.11,3.76,11.49,11.29,.02,.19,.03,.4,.03,.61v6.8h-7.81v-7.33c0-2.36-1.35-3.76-3.81-3.76l-17.2-.05Z"/><path d="M25.42,13.04h-1.94c-.48-1.34-1.74-2.31-3.25-2.31s-2.77,.97-3.25,2.31h-1.94c-.95,0-1.73,.77-1.73,1.73v12.68c0,.95,.77,1.73,1.73,1.73h10.38c.95,0,1.73-.77,1.73-1.73V14.77c0-.96-.77-1.73-1.73-1.73Zm-5.19,0c.64,0,1.15,.52,1.15,1.15s-.52,1.15-1.15,1.15-1.15-.52-1.15-1.15,.52-1.15,1.15-1.15Zm0,4.61c1.27,0,2.31,1.03,2.31,2.31s-1.03,2.31-2.31,2.31-2.31-1.03-2.31-2.31,1.03-2.31,2.31-2.31Zm3.46,9.22h-6.92c-.32,0-.58-.26-.58-.58,0-1.59,1.29-2.88,2.88-2.88h2.31c1.59,0,2.88,1.29,2.88,2.88,0,.32-.26,.58-.58,.58Z"/></g></g></g></svg>